<svg version="1.0" xmlns="http://www.w3.org/2000/svg"
 width="807.000000pt" height="454.000000pt" viewBox="0 0 807.000000 454.000000"
 preserveAspectRatio="xMidYMid meet">
<metadata>
Created by potrace 1.16, written by Peter Selinger 2001-2019
</metadata>
<g transform="translate(0.000000,454.000000) scale(0.100000,-0.100000)"
fill="#000000" stroke="none">
<path d="M0 2270 l0 -2270 4035 0 4035 0 0 2270 0 2270 -4035 0 -4035 0 0
-2270z m5036 1332 l261 -219 74 13 c238 41 460 -91 529 -315 19 -60 20 -95 20
-670 0 -655 -1 -659 -55 -759 -162 -299 -621 -315 -806 -29 -71 110 -73 123
-79 584 l-5 413 -175 -212 c-96 -117 -212 -257 -258 -311 -46 -55 -89 -109
-97 -120 -8 -11 -18 -16 -26 -12 -8 5 -10 4 -5 -3 4 -7 -6 -29 -22 -49 -16
-21 -44 -77 -61 -125 l-31 -88 270 0 270 0 0 -145 0 -145 -414 0 c-366 0 -415
2 -420 16 -6 15 -21 -1 -161 -172 -251 -308 -308 -374 -319 -366 -40 31 -200
162 -301 247 -261 220 -334 275 -362 275 -52 0 -156 30 -217 63 -112 59 -200
175 -225 295 -17 82 -15 1221 3 1287 45 170 183 300 354 336 77 16 203 6 274
-21 124 -46 226 -151 271 -277 20 -55 22 -82 27 -517 l5 -459 103 126 c56 69
107 129 112 132 6 4 10 185 10 506 l0 499 140 0 140 0 2 -322 3 -322 85 103
c47 57 118 142 157 190 40 47 73 89 73 94 0 4 -34 7 -75 7 l-75 0 0 130 0 130
189 0 188 0 104 126 c204 249 251 304 257 304 4 0 124 -98 268 -218z m-3165
-212 c84 -16 171 -63 227 -124 88 -97 119 -194 128 -396 7 -142 -4 -269 -30
-356 -22 -72 -86 -166 -145 -212 -84 -67 -144 -84 -308 -90 l-143 -5 0 -398 0
-399 -140 0 -140 0 0 995 0 995 249 0 c136 0 273 -5 302 -10z m4536 -12 c6 -7
37 -89 71 -183 33 -93 101 -285 152 -425 50 -140 115 -320 142 -400 28 -80 55
-149 60 -155 4 -5 8 255 8 578 0 323 3 587 8 587 4 0 66 1 137 3 l130 2 3
-987 2 -988 -134 0 -133 0 -33 93 c-18 50 -87 245 -154 432 -68 187 -149 414
-182 505 l-59 165 -3 -597 -2 -598 -140 0 -140 0 0 985 0 984 113 4 c61 1 119
4 128 5 9 1 21 -4 26 -10z"/>
<path d="M2769 3081 c-79 -49 -80 -55 -77 -406 l3 -307 71 89 c39 48 124 153
188 232 102 126 116 148 116 181 0 60 -19 143 -39 170 -54 74 -180 94 -262 41z"/>
<path d="M5372 3087 c-43 -25 -101 -105 -107 -150 -3 -23 -5 -290 -3 -594 l3
-551 31 -39 c46 -56 89 -78 154 -78 76 1 137 35 168 95 l22 44 0 575 c0 553
-1 576 -20 615 -30 61 -79 90 -159 93 -42 2 -74 -1 -89 -10z"/>
<path d="M2875 2174 l-180 -224 -3 -64 c-5 -110 40 -173 142 -196 107 -24 203
36 225 141 12 56 15 556 3 562 -4 3 -88 -96 -187 -219z"/>
<path d="M1600 2805 l0 -338 114 5 c133 6 180 25 216 90 48 85 47 402 -1 488
-36 63 -85 83 -216 88 l-113 5 0 -338z"/>
</g>
</svg>
